{"title":"A.Beautiful.Mind.2001.1080p.BluRay.x264.DTS-FGT","uid":11965910,"size":18455827305,"categoryP":"video","categoryS":"hd___movies","magnet":"?xt=urn:btih:a532a1aac1da23eb8365f5dd3730b412c613e2b7&amp;dn=A.Beautiful.Mind.2001.1080p.BluRay.x264.DTS-FGT&amp;tr=udp%3A%2F%2Ftracker.openbittorrent.com%3A80&amp;tr=udp%3A%2F%2Fopen.demonii.com%3A1337&amp;tr=udp%3A%2F%2Ftracker.coppersurfer.tk%3A6969&amp;tr=udp%3A%2F%2Fexodus.desync.com%3A6969","seeders":0,"leechers":1,"uploader":"vickey1992","files":3,"time":1432665877,"description":"Video\nID                                       : 1\nFormat                                   : AVC\nFormat/Info                              : Advanced Video Codec\nFormat profile                           : &lt;a class=&quot;__cf_email__&quot; href=&quot;/cdn-cgi/l/email-protection&quot; data-cfemail=&quot;e6ae8f818ea6aad2c8d7&quot;&gt;[email&amp;#160;protected]&lt;/a&gt;&lt;script data-cfhash='f9e31' type=&quot;text/javascript&quot;&gt;\n/* &lt;![CDATA[ */!function(){try{var t=&quot;currentScript&quot;in document?document.currentScript:function(){for(var t=document.getElementsByTagName(&quot;script&quot;),e=t.length;e--;)if(t[e].getAttribute(&quot;data-cfhash&quot;))return t[e]}();if(t&amp;&amp;t.previousSibling){var e,r,n,i,c=t.previousSibling,a=c.getAttribute(&quot;data-cfemail&quot;);if(a){for(e=&quot;&quot;,r=parseInt(a.substr(0,2),16),n=2;a.length-n;n+=2)i=parseInt(a.substr(n,2),16)^r,e+=String.fromCharCode(i);e=document.createTextNode(e),c.parentNode.replaceChild(e,c)}t.parentNode.removeChild(t);}}catch(u){}}()/* ]]&gt; */&lt;/script&gt;\nFormat settings, CABAC                   : Yes\nFormat settings, ReFrames                : 4 frames\nCodec ID                                 : V_MPEG4/ISO/AVC\nDuration                                 : 2h 15mn\nBit rate                                 : 16.3 Mbps\nWidth                                    : 1 920 pixels\nHeight                                   : 1 038 pixels\nDisplay aspect ratio                     : 1.85:1\nFrame rate mode                          : Constant\nFrame rate                               : 23.976 fps\nColor space                              : YUV\nChroma subsampling                       : 4:2:0\nBit depth                                : 8 bits\nScan type                                : Progressive\nBits/(Pixel*Frame)                       : 0.341\nStream size                              : 15.4 GiB (90%)\nWriting library                          : x264 core 140 r2377+40 929f149 tMod [8-bit@4:2:0 X86_64]\nEncoding settings                        : cabac=1 / ref=4 / deblock=1:-2:-2 / analyse=0x3:0x113 / me=umh / subme=11 / psy=1 / fade_compensate=0.00 / psy_rd=1.00:0.00 / mixed_ref=1 / me_range=48 / chroma_me=1 / trellis=2 / 8x8dct=1 / cqm=0 / deadzone=21,11 / fast_pskip=1 / chroma_qp_offset=-2 / threads=12 / lookahead_threads=3 / sliced_threads=0 / nr=0 / decimate=1 / interlaced=0 / bluray_compat=0 / constrained_intra=0 / fgo=0 / bframes=13 / b_pyramid=2 / b_adapt=2 / b_bias=0 / direct=3 / weightb=1 / open_gop=0 / weightp=2 / keyint=250 / keyint_min=23 / scenecut=40 / intra_refresh=0 / rc_lookahead=60 / rc=crf / mbtree=0 / crf=18.0000 / qcomp=0.60 / qpmin=0:0:0 / qpmax=69:69:69 / qpstep=4 / vbv_maxrate=62500 / vbv_bufsize=78125 / crf_max=0.0 / nal_hrd=none / filler=0 / ip_ratio=1.40 / pb_ratio=1.30 / aq=4:0.80 / aq-sensitivity=11.00 / aq-factor=1.00:1.00:1.00 / aq2=1:0.60 / aq2-sensitivity=9.00 / aq2-factor=1.00:1.00:1.00 / aq3=1:[0.60:0.60]:[0.60:0.60]:[0.60:0.60]:[0.60:0.60] / aq3-sensitivity=10.00 / aq3-factor=[1.00:1.00]:[1.00:1.00]:[1.00:1.00] / aq3-boundary=192:64:24\nLanguage                                 : English\nDefault                                  : Yes\nForced                                   : No\nColor range                              : Limited\nColor primaries                          : BT.709\nTransfer characteristics                 : BT.709\nMatrix coefficients                      : BT.709\n\nAudio\nID                                       : 2\nFormat                                   : DTS\nFormat/Info                              : Digital Theater Systems\nMode                                     : 16\nFormat settings, Endianness              : Big\nCodec ID                                 : A_DTS\nDuration                                 : 2h 15mn\nBit rate mode                            : Constant\nBit rate                                 : 1 509 Kbps\nChannel(s)                               : 6 channels\nChannel positions                        : Front: L C R, Side: L R, LFE\nSampling rate                            : 48.0 KHz\nBit depth                                : 24 bits\nCompression mode                         : Lossy\nStream size                              : 1.43 GiB (8%)\nLanguage                                 : English\nDefault                                  : Yes\nForced                                   : No\n\nText #1\nID                                       : 3\nFormat                                   : UTF-8\nCodec ID                                 : S_TEXT/UTF8\nCodec ID/Info                            : UTF-8 Plain Text\nLanguage                                 : English\nDefault                                  : No\nForced                                   : No\n\nText #2\nID                                       : 4\nFormat                                   : UTF-8\nCodec ID                                 : S_TEXT/UTF8\nCodec ID/Info                            : UTF-8 Plain Text\nTitle                                    : SDH\nLanguage                                 : English\nDefault                                  : No\nForced                                   : No\n\nMenu\n00:00:00.000                             : en:Main Titles\n00:01:24.835                             : en:Mathematicians\n00:09:02.292                             : en:A Challenge\n00:11:25.935                             : en:The Need to Focus\n00:19:01.015                             : en:Governing Dynamics\n00:24:51.240                             : en:The Pentagon\n00:30:07.639                             : en:Teacher and Student\n00:32:20.063                             : en:Code Breaker\n00:37:39.841                             : en:Alicia\n00:48:59.687                             : en:The Prodigal Roommate\n00:51:32.006                             : en:A Wedding\n00:54:52.998                             : en:Trouble\n01:02:42.884                             : enr. Rosen\n01:09:22.867                             : en:Mental Illness\n01:18:10.436                             : en:Treatment\n01:30:04.024                             : enelusions\n01:45:39.875                             : enrinceton\n01:51:26.555                             : en:Goodbye, Old Friends\n02:00:09.327                             : en:A Nobel Prize\n02:08:41.297                             : en:End Titles","torrent":{"xt":"urn:btih:a532a1aac1da23eb8365f5dd3730b412c613e2b7","amp;dn":"A.Beautiful.Mind.2001.1080p.BluRay.x264.DTS-FGT","amp;tr":["udp%3A%2F%2Ftracker.openbittorrent.com%3A80","udp%3A%2F%2Fopen.demonii.com%3A1337","udp%3A%2F%2Ftracker.coppersurfer.tk%3A6969","udp%3A%2F%2Fexodus.desync.com%3A6969"],"infoHash":"a532a1aac1da23eb8365f5dd3730b412c613e2b7","infoHashBuffer":{"type":"Buffer","data":[165,50,161,170,193,218,35,235,131,101,245,221,55,48,180,18,198,19,226,183]},"announce":[],"urlList":[]}}